<?xml version="1.0" encoding="utf-8"?>
<!-- Generator: Adobe Illustrator 16.0.0, SVG Export Plug-In . SVG Version: 6.00 Build 0)  -->
<!DOCTYPE svg PUBLIC "-//W3C//DTD SVG 1.1//EN" "http://www.w3.org/Graphics/SVG/1.1/DTD/svg11.dtd">
<svg version="1.1" id="Layer_1" xmlns="http://www.w3.org/2000/svg" xmlns:xlink="http://www.w3.org/1999/xlink" x="0px" y="0px"
	 width="27.947px" height="19.215px" viewBox="0 0 27.947 19.215" enable-background="new 0 0 27.947 19.215" xml:space="preserve">
<path fill="#E52127" d="M0,0v2.184c0,0.262,0.18,0.513,0.354,0.602l13.183,6.659c0.262,0.087,0.617,0.087,0.791,0l13.184-6.659
	c0.262-0.088,0.436-0.339,0.436-0.602V0H0z M0.219,5.377C0.096,5.377,0,5.481,0,5.677v13.538h27.947V5.677
	c0-0.262-0.18-0.359-0.354-0.272L14.41,12.062c-0.262,0.088-0.616,0.088-0.791,0L0.354,5.404C0.312,5.382,0.26,5.377,0.219,5.377z"
	/>
</svg>
