<?xml version="1.0" encoding="utf-8"?>
<!-- Generator: Adobe Illustrator 16.0.0, SVG Export Plug-In . SVG Version: 6.00 Build 0)  -->
<!DOCTYPE svg PUBLIC "-//W3C//DTD SVG 1.1//EN" "http://www.w3.org/Graphics/SVG/1.1/DTD/svg11.dtd">
<svg version="1.1" id="Layer_1" xmlns="http://www.w3.org/2000/svg" xmlns:xlink="http://www.w3.org/1999/xlink" x="0px" y="0px"
	 width="24.21px" height="20.174px" viewBox="0 0 24.21 20.174" enable-background="new 0 0 24.21 20.174" xml:space="preserve">
<path fill="#E52127" d="M21.733,5.024c0.008,0.218,0.013,0.439,0.013,0.66c0,6.73-4.995,14.49-14.132,14.49
	c-2.804,0-5.416-0.844-7.614-2.286c0.388,0.047,0.784,0.07,1.186,0.07c2.326,0,4.469-0.814,6.169-2.182
	c-2.175-0.039-4.008-1.513-4.64-3.535c0.302,0.061,0.615,0.09,0.935,0.09c0.453,0,0.893-0.06,1.309-0.179
	c-2.273-0.466-3.986-2.525-3.986-4.994V7.096c0.672,0.379,1.438,0.61,2.252,0.636c-1.333-0.914-2.21-2.473-2.21-4.239
	c0-0.933,0.244-1.809,0.672-2.563c2.451,3.085,6.11,5.11,10.238,5.323c-0.085-0.374-0.128-0.761-0.128-1.16
	C11.796,2.28,14.02,0,16.761,0c1.43,0,2.722,0.618,3.625,1.607c1.134-0.227,2.195-0.651,3.156-1.234
	c-0.371,1.188-1.158,2.187-2.184,2.817c1.004-0.123,1.962-0.397,2.852-0.802C23.546,3.41,22.704,4.306,21.733,5.024z"/>
</svg>
